<mxfile host="app.diagrams.net" modified="2023-12-06T09:26:00.921Z" agent="Mozilla/5.0 (Windows NT 10.0; Win64; x64) AppleWebKit/537.36 (KHTML, like Gecko) Chrome/119.0.0.0 Safari/537.36" etag="JULaqEOddWCLEl07xF3Q" version="22.1.5" type="github">
  <diagram id="C5RBs43oDa-KdzZeNtuy" name="Page-1">
    <mxGraphModel dx="1877" dy="1734" grid="1" gridSize="10" guides="1" tooltips="1" connect="0" arrows="1" fold="1" page="1" pageScale="1" pageWidth="827" pageHeight="1169" math="0" shadow="0">
      <root>
        <mxCell id="WIyWlLk6GJQsqaUBKTNV-0" />
        <mxCell id="WIyWlLk6GJQsqaUBKTNV-1" parent="WIyWlLk6GJQsqaUBKTNV-0" />
        <mxCell id="685tumIucb2wH4SIrYt--93" value="" style="shape=ext;double=1;rounded=0;whiteSpace=wrap;html=1;fontStyle=1" vertex="1" parent="WIyWlLk6GJQsqaUBKTNV-1">
          <mxGeometry x="650" y="110" width="410" height="350" as="geometry" />
        </mxCell>
        <mxCell id="685tumIucb2wH4SIrYt--36" value="" style="shape=ext;double=1;rounded=0;whiteSpace=wrap;html=1;fontStyle=1" vertex="1" parent="WIyWlLk6GJQsqaUBKTNV-1">
          <mxGeometry x="190" y="-20" width="420" height="730" as="geometry" />
        </mxCell>
        <mxCell id="685tumIucb2wH4SIrYt--3" value="" style="edgeStyle=orthogonalEdgeStyle;rounded=0;orthogonalLoop=1;jettySize=auto;html=1;fontStyle=1" edge="1" parent="WIyWlLk6GJQsqaUBKTNV-1" source="685tumIucb2wH4SIrYt--1" target="685tumIucb2wH4SIrYt--2">
          <mxGeometry relative="1" as="geometry" />
        </mxCell>
        <mxCell id="685tumIucb2wH4SIrYt--1" value="&lt;span&gt;挂检修牌及上游开关A分&lt;/span&gt;" style="rounded=1;whiteSpace=wrap;html=1;fontStyle=1" vertex="1" parent="WIyWlLk6GJQsqaUBKTNV-1">
          <mxGeometry x="270" y="40" width="120" height="60" as="geometry" />
        </mxCell>
        <mxCell id="685tumIucb2wH4SIrYt--5" value="" style="edgeStyle=orthogonalEdgeStyle;rounded=0;orthogonalLoop=1;jettySize=auto;html=1;fontStyle=1" edge="1" parent="WIyWlLk6GJQsqaUBKTNV-1" source="685tumIucb2wH4SIrYt--2" target="685tumIucb2wH4SIrYt--4">
          <mxGeometry relative="1" as="geometry" />
        </mxCell>
        <mxCell id="685tumIucb2wH4SIrYt--2" value="确定停电范围" style="whiteSpace=wrap;html=1;rounded=1;fontStyle=1" vertex="1" parent="WIyWlLk6GJQsqaUBKTNV-1">
          <mxGeometry x="270" y="140" width="120" height="60" as="geometry" />
        </mxCell>
        <mxCell id="685tumIucb2wH4SIrYt--7" value="" style="edgeStyle=orthogonalEdgeStyle;rounded=0;orthogonalLoop=1;jettySize=auto;html=1;fontStyle=1" edge="1" parent="WIyWlLk6GJQsqaUBKTNV-1" source="685tumIucb2wH4SIrYt--4" target="685tumIucb2wH4SIrYt--6">
          <mxGeometry relative="1" as="geometry" />
        </mxCell>
        <mxCell id="685tumIucb2wH4SIrYt--8" value="否" style="edgeLabel;html=1;align=center;verticalAlign=middle;resizable=0;points=[];fontStyle=1" vertex="1" connectable="0" parent="685tumIucb2wH4SIrYt--7">
          <mxGeometry x="-0.1733" y="-1" relative="1" as="geometry">
            <mxPoint as="offset" />
          </mxGeometry>
        </mxCell>
        <mxCell id="685tumIucb2wH4SIrYt--10" value="" style="edgeStyle=orthogonalEdgeStyle;rounded=0;orthogonalLoop=1;jettySize=auto;html=1;fontStyle=1" edge="1" parent="WIyWlLk6GJQsqaUBKTNV-1" source="685tumIucb2wH4SIrYt--4" target="685tumIucb2wH4SIrYt--9">
          <mxGeometry relative="1" as="geometry" />
        </mxCell>
        <mxCell id="685tumIucb2wH4SIrYt--12" value="是" style="edgeLabel;html=1;align=center;verticalAlign=middle;resizable=0;points=[];fontStyle=1" vertex="1" connectable="0" parent="685tumIucb2wH4SIrYt--10">
          <mxGeometry x="-0.24" y="-1" relative="1" as="geometry">
            <mxPoint as="offset" />
          </mxGeometry>
        </mxCell>
        <mxCell id="685tumIucb2wH4SIrYt--4" value="是否停电" style="rhombus;whiteSpace=wrap;html=1;fontStyle=1" vertex="1" parent="WIyWlLk6GJQsqaUBKTNV-1">
          <mxGeometry x="250" y="230" width="160" height="80" as="geometry" />
        </mxCell>
        <mxCell id="685tumIucb2wH4SIrYt--6" value="隔离不停电区域，在防误提示中显示隔离开关的选择，以及隔离区域" style="whiteSpace=wrap;html=1;rounded=1;fontStyle=1" vertex="1" parent="WIyWlLk6GJQsqaUBKTNV-1">
          <mxGeometry x="470" y="240" width="120" height="60" as="geometry" />
        </mxCell>
        <mxCell id="685tumIucb2wH4SIrYt--14" value="" style="edgeStyle=orthogonalEdgeStyle;rounded=0;orthogonalLoop=1;jettySize=auto;html=1;fontStyle=1" edge="1" parent="WIyWlLk6GJQsqaUBKTNV-1" source="685tumIucb2wH4SIrYt--9" target="685tumIucb2wH4SIrYt--13">
          <mxGeometry relative="1" as="geometry" />
        </mxCell>
        <mxCell id="685tumIucb2wH4SIrYt--9" value="对停电区域内台区进行独立运行(自治)计算" style="whiteSpace=wrap;html=1;rounded=1;fontStyle=1" vertex="1" parent="WIyWlLk6GJQsqaUBKTNV-1">
          <mxGeometry x="270" y="360" width="120" height="60" as="geometry" />
        </mxCell>
        <mxCell id="685tumIucb2wH4SIrYt--16" value="" style="edgeStyle=orthogonalEdgeStyle;rounded=0;orthogonalLoop=1;jettySize=auto;html=1;fontStyle=1" edge="1" parent="WIyWlLk6GJQsqaUBKTNV-1" source="685tumIucb2wH4SIrYt--13" target="685tumIucb2wH4SIrYt--15">
          <mxGeometry relative="1" as="geometry" />
        </mxCell>
        <mxCell id="685tumIucb2wH4SIrYt--24" value="否" style="edgeLabel;html=1;align=center;verticalAlign=middle;resizable=0;points=[];fontStyle=1" vertex="1" connectable="0" parent="685tumIucb2wH4SIrYt--16">
          <mxGeometry x="-0.1754" y="-1" relative="1" as="geometry">
            <mxPoint as="offset" />
          </mxGeometry>
        </mxCell>
        <mxCell id="685tumIucb2wH4SIrYt--19" value="" style="edgeStyle=orthogonalEdgeStyle;rounded=0;orthogonalLoop=1;jettySize=auto;html=1;fontStyle=1" edge="1" parent="WIyWlLk6GJQsqaUBKTNV-1" source="685tumIucb2wH4SIrYt--13" target="685tumIucb2wH4SIrYt--18">
          <mxGeometry relative="1" as="geometry" />
        </mxCell>
        <mxCell id="685tumIucb2wH4SIrYt--23" value="是" style="edgeLabel;html=1;align=center;verticalAlign=middle;resizable=0;points=[];fontStyle=1" vertex="1" connectable="0" parent="685tumIucb2wH4SIrYt--19">
          <mxGeometry x="-0.2333" y="2" relative="1" as="geometry">
            <mxPoint as="offset" />
          </mxGeometry>
        </mxCell>
        <mxCell id="685tumIucb2wH4SIrYt--13" value="台区是否能够独立运行" style="rhombus;whiteSpace=wrap;html=1;fontStyle=1" vertex="1" parent="WIyWlLk6GJQsqaUBKTNV-1">
          <mxGeometry x="255" y="470" width="150" height="80" as="geometry" />
        </mxCell>
        <mxCell id="685tumIucb2wH4SIrYt--15" value="光伏用户和光伏电站控离网" style="whiteSpace=wrap;html=1;rounded=1;fontStyle=1" vertex="1" parent="WIyWlLk6GJQsqaUBKTNV-1">
          <mxGeometry x="470" y="480" width="120" height="60" as="geometry" />
        </mxCell>
        <mxCell id="685tumIucb2wH4SIrYt--18" value="在防误提示中显示光伏用户可控操作列表，进行一键瞬控，同时显示不可控用户列表" style="whiteSpace=wrap;html=1;rounded=1;fontStyle=1" vertex="1" parent="WIyWlLk6GJQsqaUBKTNV-1">
          <mxGeometry x="265" y="610" width="130" height="60" as="geometry" />
        </mxCell>
        <mxCell id="685tumIucb2wH4SIrYt--26" value="不停电范围条件" style="shape=table;startSize=30;container=1;collapsible=0;childLayout=tableLayout;fixedRows=1;rowLines=0;fontStyle=0;fontSize=16;rounded=1;shadow=0;" vertex="1" parent="WIyWlLk6GJQsqaUBKTNV-1">
          <mxGeometry x="-130" y="190" width="290" height="160" as="geometry" />
        </mxCell>
        <mxCell id="685tumIucb2wH4SIrYt--27" value="" style="shape=tableRow;horizontal=0;startSize=0;swimlaneHead=0;swimlaneBody=0;top=0;left=0;bottom=0;right=0;collapsible=0;dropTarget=0;fillColor=none;points=[[0,0.5],[1,0.5]];portConstraint=eastwest;strokeColor=inherit;fontSize=16;" vertex="1" parent="685tumIucb2wH4SIrYt--26">
          <mxGeometry y="30" width="290" height="30" as="geometry" />
        </mxCell>
        <mxCell id="685tumIucb2wH4SIrYt--28" value="1" style="shape=partialRectangle;html=1;whiteSpace=wrap;connectable=0;fillColor=none;top=0;left=0;bottom=0;right=0;overflow=hidden;pointerEvents=1;strokeColor=inherit;fontSize=16;" vertex="1" parent="685tumIucb2wH4SIrYt--27">
          <mxGeometry width="64" height="30" as="geometry">
            <mxRectangle width="64" height="30" as="alternateBounds" />
          </mxGeometry>
        </mxCell>
        <mxCell id="685tumIucb2wH4SIrYt--29" value="下游开关(B1,B2)的功率是反向" style="shape=partialRectangle;html=1;whiteSpace=wrap;connectable=0;fillColor=none;top=0;left=0;bottom=0;right=0;align=left;spacingLeft=6;overflow=hidden;strokeColor=inherit;fontSize=16;" vertex="1" parent="685tumIucb2wH4SIrYt--27">
          <mxGeometry x="64" width="226" height="30" as="geometry">
            <mxRectangle width="226" height="30" as="alternateBounds" />
          </mxGeometry>
        </mxCell>
        <mxCell id="685tumIucb2wH4SIrYt--30" value="" style="shape=tableRow;horizontal=0;startSize=0;swimlaneHead=0;swimlaneBody=0;top=0;left=0;bottom=0;right=0;collapsible=0;dropTarget=0;fillColor=none;points=[[0,0.5],[1,0.5]];portConstraint=eastwest;strokeColor=inherit;fontSize=16;" vertex="1" parent="685tumIucb2wH4SIrYt--26">
          <mxGeometry y="60" width="290" height="70" as="geometry" />
        </mxCell>
        <mxCell id="685tumIucb2wH4SIrYt--31" value="2" style="shape=partialRectangle;html=1;whiteSpace=wrap;connectable=0;fillColor=none;top=0;left=0;bottom=0;right=0;overflow=hidden;strokeColor=inherit;fontSize=16;" vertex="1" parent="685tumIucb2wH4SIrYt--30">
          <mxGeometry width="64" height="70" as="geometry">
            <mxRectangle width="64" height="70" as="alternateBounds" />
          </mxGeometry>
        </mxCell>
        <mxCell id="685tumIucb2wH4SIrYt--32" value="下游开关以下所有构网型(或可切换成构网型的)的储能电量足够使用时间 ≥ 30min" style="shape=partialRectangle;html=1;whiteSpace=wrap;connectable=0;fillColor=none;top=0;left=0;bottom=0;right=0;align=left;spacingLeft=6;overflow=hidden;strokeColor=inherit;fontSize=16;" vertex="1" parent="685tumIucb2wH4SIrYt--30">
          <mxGeometry x="64" width="226" height="70" as="geometry">
            <mxRectangle width="226" height="70" as="alternateBounds" />
          </mxGeometry>
        </mxCell>
        <mxCell id="685tumIucb2wH4SIrYt--33" value="" style="shape=tableRow;horizontal=0;startSize=0;swimlaneHead=0;swimlaneBody=0;top=0;left=0;bottom=0;right=0;collapsible=0;dropTarget=0;fillColor=none;points=[[0,0.5],[1,0.5]];portConstraint=eastwest;strokeColor=inherit;fontSize=16;" vertex="1" parent="685tumIucb2wH4SIrYt--26">
          <mxGeometry y="130" width="290" height="30" as="geometry" />
        </mxCell>
        <mxCell id="685tumIucb2wH4SIrYt--34" value="3" style="shape=partialRectangle;html=1;whiteSpace=wrap;connectable=0;fillColor=none;top=0;left=0;bottom=0;right=0;overflow=hidden;strokeColor=inherit;fontSize=16;" vertex="1" parent="685tumIucb2wH4SIrYt--33">
          <mxGeometry width="64" height="30" as="geometry">
            <mxRectangle width="64" height="30" as="alternateBounds" />
          </mxGeometry>
        </mxCell>
        <mxCell id="685tumIucb2wH4SIrYt--35" value="超短期预测足够 ≥ 30min" style="shape=partialRectangle;html=1;whiteSpace=wrap;connectable=0;fillColor=none;top=0;left=0;bottom=0;right=0;align=left;spacingLeft=6;overflow=hidden;strokeColor=inherit;fontSize=16;" vertex="1" parent="685tumIucb2wH4SIrYt--33">
          <mxGeometry x="64" width="226" height="30" as="geometry">
            <mxRectangle width="226" height="30" as="alternateBounds" />
          </mxGeometry>
        </mxCell>
        <mxCell id="685tumIucb2wH4SIrYt--37" value="主流程" style="text;strokeColor=none;fillColor=none;html=1;fontSize=24;fontStyle=1;verticalAlign=middle;align=center;" vertex="1" parent="WIyWlLk6GJQsqaUBKTNV-1">
          <mxGeometry x="350" y="-10" width="100" height="40" as="geometry" />
        </mxCell>
        <mxCell id="685tumIucb2wH4SIrYt--39" value="&lt;b&gt;ps：排除不停电范围，剩下的就是停电范围&lt;/b&gt;" style="text;html=1;strokeColor=none;fillColor=none;align=center;verticalAlign=middle;whiteSpace=wrap;rounded=0;" vertex="1" parent="WIyWlLk6GJQsqaUBKTNV-1">
          <mxGeometry x="-105" y="350" width="240" height="30" as="geometry" />
        </mxCell>
        <mxCell id="685tumIucb2wH4SIrYt--40" value="台区独立运行条件" style="shape=table;startSize=30;container=1;collapsible=0;childLayout=tableLayout;fixedRows=1;rowLines=0;fontStyle=0;fontSize=16;rounded=1;shadow=0;" vertex="1" parent="WIyWlLk6GJQsqaUBKTNV-1">
          <mxGeometry x="-130" y="430" width="290" height="180" as="geometry" />
        </mxCell>
        <mxCell id="685tumIucb2wH4SIrYt--41" value="" style="shape=tableRow;horizontal=0;startSize=0;swimlaneHead=0;swimlaneBody=0;top=0;left=0;bottom=0;right=0;collapsible=0;dropTarget=0;fillColor=none;points=[[0,0.5],[1,0.5]];portConstraint=eastwest;strokeColor=inherit;fontSize=16;" vertex="1" parent="685tumIucb2wH4SIrYt--40">
          <mxGeometry y="30" width="290" height="50" as="geometry" />
        </mxCell>
        <mxCell id="685tumIucb2wH4SIrYt--42" value="1" style="shape=partialRectangle;html=1;whiteSpace=wrap;connectable=0;fillColor=none;top=0;left=0;bottom=0;right=0;overflow=hidden;pointerEvents=1;strokeColor=inherit;fontSize=16;" vertex="1" parent="685tumIucb2wH4SIrYt--41">
          <mxGeometry width="64" height="50" as="geometry">
            <mxRectangle width="64" height="50" as="alternateBounds" />
          </mxGeometry>
        </mxCell>
        <mxCell id="685tumIucb2wH4SIrYt--43" value="台区总开关功率流向是向上且储能运行模式是构网型" style="shape=partialRectangle;html=1;whiteSpace=wrap;connectable=0;fillColor=none;top=0;left=0;bottom=0;right=0;align=left;spacingLeft=6;overflow=hidden;strokeColor=inherit;fontSize=16;" vertex="1" parent="685tumIucb2wH4SIrYt--41">
          <mxGeometry x="64" width="226" height="50" as="geometry">
            <mxRectangle width="226" height="50" as="alternateBounds" />
          </mxGeometry>
        </mxCell>
        <mxCell id="685tumIucb2wH4SIrYt--44" value="" style="shape=tableRow;horizontal=0;startSize=0;swimlaneHead=0;swimlaneBody=0;top=0;left=0;bottom=0;right=0;collapsible=0;dropTarget=0;fillColor=none;points=[[0,0.5],[1,0.5]];portConstraint=eastwest;strokeColor=inherit;fontSize=16;" vertex="1" parent="685tumIucb2wH4SIrYt--40">
          <mxGeometry y="80" width="290" height="50" as="geometry" />
        </mxCell>
        <mxCell id="685tumIucb2wH4SIrYt--45" value="2" style="shape=partialRectangle;html=1;whiteSpace=wrap;connectable=0;fillColor=none;top=0;left=0;bottom=0;right=0;overflow=hidden;strokeColor=inherit;fontSize=16;" vertex="1" parent="685tumIucb2wH4SIrYt--44">
          <mxGeometry width="64" height="50" as="geometry">
            <mxRectangle width="64" height="50" as="alternateBounds" />
          </mxGeometry>
        </mxCell>
        <mxCell id="685tumIucb2wH4SIrYt--46" value="台区内存储电量可支持台区独立运行时间 ≥ 30min" style="shape=partialRectangle;html=1;whiteSpace=wrap;connectable=0;fillColor=none;top=0;left=0;bottom=0;right=0;align=left;spacingLeft=6;overflow=hidden;strokeColor=inherit;fontSize=16;" vertex="1" parent="685tumIucb2wH4SIrYt--44">
          <mxGeometry x="64" width="226" height="50" as="geometry">
            <mxRectangle width="226" height="50" as="alternateBounds" />
          </mxGeometry>
        </mxCell>
        <mxCell id="685tumIucb2wH4SIrYt--47" value="" style="shape=tableRow;horizontal=0;startSize=0;swimlaneHead=0;swimlaneBody=0;top=0;left=0;bottom=0;right=0;collapsible=0;dropTarget=0;fillColor=none;points=[[0,0.5],[1,0.5]];portConstraint=eastwest;strokeColor=inherit;fontSize=16;" vertex="1" parent="685tumIucb2wH4SIrYt--40">
          <mxGeometry y="130" width="290" height="50" as="geometry" />
        </mxCell>
        <mxCell id="685tumIucb2wH4SIrYt--48" value="3" style="shape=partialRectangle;html=1;whiteSpace=wrap;connectable=0;fillColor=none;top=0;left=0;bottom=0;right=0;overflow=hidden;strokeColor=inherit;fontSize=16;" vertex="1" parent="685tumIucb2wH4SIrYt--47">
          <mxGeometry width="64" height="50" as="geometry">
            <mxRectangle width="64" height="50" as="alternateBounds" />
          </mxGeometry>
        </mxCell>
        <mxCell id="685tumIucb2wH4SIrYt--49" value="超短期发电及负荷预测校验 ≥ 30min" style="shape=partialRectangle;html=1;whiteSpace=wrap;connectable=0;fillColor=none;top=0;left=0;bottom=0;right=0;align=left;spacingLeft=6;overflow=hidden;strokeColor=inherit;fontSize=16;" vertex="1" parent="685tumIucb2wH4SIrYt--47">
          <mxGeometry x="64" width="226" height="50" as="geometry">
            <mxRectangle width="226" height="50" as="alternateBounds" />
          </mxGeometry>
        </mxCell>
        <mxCell id="685tumIucb2wH4SIrYt--51" value="" style="endArrow=none;html=1;rounded=0;" edge="1" parent="WIyWlLk6GJQsqaUBKTNV-1" source="685tumIucb2wH4SIrYt--58">
          <mxGeometry width="50" height="50" relative="1" as="geometry">
            <mxPoint x="696" y="240" as="sourcePoint" />
            <mxPoint x="996" y="240" as="targetPoint" />
          </mxGeometry>
        </mxCell>
        <mxCell id="685tumIucb2wH4SIrYt--57" value="" style="endArrow=none;html=1;rounded=0;" edge="1" parent="WIyWlLk6GJQsqaUBKTNV-1" target="685tumIucb2wH4SIrYt--55">
          <mxGeometry width="50" height="50" relative="1" as="geometry">
            <mxPoint x="696" y="240" as="sourcePoint" />
            <mxPoint x="996" y="240" as="targetPoint" />
          </mxGeometry>
        </mxCell>
        <mxCell id="685tumIucb2wH4SIrYt--55" value="" style="rounded=0;whiteSpace=wrap;html=1;" vertex="1" parent="WIyWlLk6GJQsqaUBKTNV-1">
          <mxGeometry x="726" y="229" width="50" height="20" as="geometry" />
        </mxCell>
        <mxCell id="685tumIucb2wH4SIrYt--59" value="" style="endArrow=none;html=1;rounded=0;" edge="1" parent="WIyWlLk6GJQsqaUBKTNV-1" source="685tumIucb2wH4SIrYt--55" target="685tumIucb2wH4SIrYt--58">
          <mxGeometry width="50" height="50" relative="1" as="geometry">
            <mxPoint x="776" y="239" as="sourcePoint" />
            <mxPoint x="996" y="240" as="targetPoint" />
          </mxGeometry>
        </mxCell>
        <mxCell id="685tumIucb2wH4SIrYt--58" value="" style="rounded=0;whiteSpace=wrap;html=1;" vertex="1" parent="WIyWlLk6GJQsqaUBKTNV-1">
          <mxGeometry x="906" y="229" width="50" height="20" as="geometry" />
        </mxCell>
        <mxCell id="685tumIucb2wH4SIrYt--60" value="" style="endArrow=none;html=1;rounded=0;" edge="1" parent="WIyWlLk6GJQsqaUBKTNV-1">
          <mxGeometry width="50" height="50" relative="1" as="geometry">
            <mxPoint x="806" y="240" as="sourcePoint" />
            <mxPoint x="806" y="200" as="targetPoint" />
          </mxGeometry>
        </mxCell>
        <mxCell id="685tumIucb2wH4SIrYt--61" value="" style="endArrow=none;html=1;rounded=0;" edge="1" parent="WIyWlLk6GJQsqaUBKTNV-1" source="685tumIucb2wH4SIrYt--62">
          <mxGeometry width="50" height="50" relative="1" as="geometry">
            <mxPoint x="806" y="200" as="sourcePoint" />
            <mxPoint x="956" y="200" as="targetPoint" />
          </mxGeometry>
        </mxCell>
        <mxCell id="685tumIucb2wH4SIrYt--63" value="" style="endArrow=none;html=1;rounded=0;" edge="1" parent="WIyWlLk6GJQsqaUBKTNV-1" target="685tumIucb2wH4SIrYt--62">
          <mxGeometry width="50" height="50" relative="1" as="geometry">
            <mxPoint x="806" y="200" as="sourcePoint" />
            <mxPoint x="956" y="200" as="targetPoint" />
          </mxGeometry>
        </mxCell>
        <mxCell id="685tumIucb2wH4SIrYt--62" value="" style="rounded=0;whiteSpace=wrap;html=1;" vertex="1" parent="WIyWlLk6GJQsqaUBKTNV-1">
          <mxGeometry x="850" y="190" width="50" height="20" as="geometry" />
        </mxCell>
        <mxCell id="685tumIucb2wH4SIrYt--64" value="" style="endArrow=none;html=1;rounded=0;" edge="1" parent="WIyWlLk6GJQsqaUBKTNV-1">
          <mxGeometry width="50" height="50" relative="1" as="geometry">
            <mxPoint x="796" y="320" as="sourcePoint" />
            <mxPoint x="796" y="240" as="targetPoint" />
          </mxGeometry>
        </mxCell>
        <mxCell id="685tumIucb2wH4SIrYt--66" value="" style="ellipse;whiteSpace=wrap;html=1;aspect=fixed;" vertex="1" parent="WIyWlLk6GJQsqaUBKTNV-1">
          <mxGeometry x="786" y="267" width="20" height="20" as="geometry" />
        </mxCell>
        <mxCell id="685tumIucb2wH4SIrYt--67" value="" style="ellipse;whiteSpace=wrap;html=1;aspect=fixed;" vertex="1" parent="WIyWlLk6GJQsqaUBKTNV-1">
          <mxGeometry x="786" y="280" width="20" height="20" as="geometry" />
        </mxCell>
        <mxCell id="685tumIucb2wH4SIrYt--71" value="" style="endArrow=none;html=1;rounded=0;" edge="1" parent="WIyWlLk6GJQsqaUBKTNV-1">
          <mxGeometry width="50" height="50" relative="1" as="geometry">
            <mxPoint x="854" y="330" as="sourcePoint" />
            <mxPoint x="854" y="240" as="targetPoint" />
          </mxGeometry>
        </mxCell>
        <mxCell id="685tumIucb2wH4SIrYt--72" value="" style="ellipse;whiteSpace=wrap;html=1;aspect=fixed;" vertex="1" parent="WIyWlLk6GJQsqaUBKTNV-1">
          <mxGeometry x="844" y="267" width="20" height="20" as="geometry" />
        </mxCell>
        <mxCell id="685tumIucb2wH4SIrYt--73" value="" style="ellipse;whiteSpace=wrap;html=1;aspect=fixed;" vertex="1" parent="WIyWlLk6GJQsqaUBKTNV-1">
          <mxGeometry x="844" y="280" width="20" height="20" as="geometry" />
        </mxCell>
        <mxCell id="685tumIucb2wH4SIrYt--74" value="" style="endArrow=none;html=1;rounded=0;" edge="1" parent="WIyWlLk6GJQsqaUBKTNV-1">
          <mxGeometry width="50" height="50" relative="1" as="geometry">
            <mxPoint x="979" y="321" as="sourcePoint" />
            <mxPoint x="979" y="241" as="targetPoint" />
          </mxGeometry>
        </mxCell>
        <mxCell id="685tumIucb2wH4SIrYt--75" value="" style="ellipse;whiteSpace=wrap;html=1;aspect=fixed;" vertex="1" parent="WIyWlLk6GJQsqaUBKTNV-1">
          <mxGeometry x="969" y="268" width="20" height="20" as="geometry" />
        </mxCell>
        <mxCell id="685tumIucb2wH4SIrYt--76" value="" style="ellipse;whiteSpace=wrap;html=1;aspect=fixed;" vertex="1" parent="WIyWlLk6GJQsqaUBKTNV-1">
          <mxGeometry x="969" y="281" width="20" height="20" as="geometry" />
        </mxCell>
        <mxCell id="685tumIucb2wH4SIrYt--78" value="" style="endArrow=none;html=1;rounded=0;" edge="1" parent="WIyWlLk6GJQsqaUBKTNV-1">
          <mxGeometry width="50" height="50" relative="1" as="geometry">
            <mxPoint x="820" y="330" as="sourcePoint" />
            <mxPoint x="888" y="330" as="targetPoint" />
          </mxGeometry>
        </mxCell>
        <mxCell id="685tumIucb2wH4SIrYt--80" value="" style="endArrow=none;html=1;rounded=0;" edge="1" parent="WIyWlLk6GJQsqaUBKTNV-1">
          <mxGeometry width="50" height="50" relative="1" as="geometry">
            <mxPoint x="821" y="350" as="sourcePoint" />
            <mxPoint x="821" y="330" as="targetPoint" />
          </mxGeometry>
        </mxCell>
        <mxCell id="685tumIucb2wH4SIrYt--81" value="" style="endArrow=none;html=1;rounded=0;exitX=0.104;exitY=0.54;exitDx=0;exitDy=0;exitPerimeter=0;" edge="1" parent="WIyWlLk6GJQsqaUBKTNV-1" source="685tumIucb2wH4SIrYt--82">
          <mxGeometry width="50" height="50" relative="1" as="geometry">
            <mxPoint x="887" y="430" as="sourcePoint" />
            <mxPoint x="887" y="330" as="targetPoint" />
          </mxGeometry>
        </mxCell>
        <mxCell id="685tumIucb2wH4SIrYt--83" value="" style="endArrow=none;html=1;rounded=0;" edge="1" parent="WIyWlLk6GJQsqaUBKTNV-1" target="685tumIucb2wH4SIrYt--82">
          <mxGeometry width="50" height="50" relative="1" as="geometry">
            <mxPoint x="887" y="430" as="sourcePoint" />
            <mxPoint x="887" y="330" as="targetPoint" />
          </mxGeometry>
        </mxCell>
        <mxCell id="685tumIucb2wH4SIrYt--82" value="" style="rounded=0;whiteSpace=wrap;html=1;direction=south;" vertex="1" parent="WIyWlLk6GJQsqaUBKTNV-1">
          <mxGeometry x="877" y="350" width="20" height="50" as="geometry" />
        </mxCell>
        <mxCell id="685tumIucb2wH4SIrYt--84" value="" style="shape=parallelogram;perimeter=parallelogramPerimeter;whiteSpace=wrap;html=1;fixedSize=1;" vertex="1" parent="WIyWlLk6GJQsqaUBKTNV-1">
          <mxGeometry x="776" y="350" width="80" height="30" as="geometry" />
        </mxCell>
        <mxCell id="685tumIucb2wH4SIrYt--85" value="" style="endArrow=none;html=1;rounded=0;entryX=0.808;entryY=0.6;entryDx=0;entryDy=0;entryPerimeter=0;" edge="1" parent="WIyWlLk6GJQsqaUBKTNV-1">
          <mxGeometry width="50" height="50" relative="1" as="geometry">
            <mxPoint x="788" y="365" as="sourcePoint" />
            <mxPoint x="842.6399999999999" y="365" as="targetPoint" />
          </mxGeometry>
        </mxCell>
        <mxCell id="685tumIucb2wH4SIrYt--86" value="" style="endArrow=none;html=1;rounded=0;" edge="1" parent="WIyWlLk6GJQsqaUBKTNV-1">
          <mxGeometry width="50" height="50" relative="1" as="geometry">
            <mxPoint x="806" y="380" as="sourcePoint" />
            <mxPoint x="826" y="350" as="targetPoint" />
          </mxGeometry>
        </mxCell>
        <mxCell id="685tumIucb2wH4SIrYt--87" value="&lt;b&gt;A&lt;/b&gt;" style="text;html=1;strokeColor=none;fillColor=none;align=center;verticalAlign=middle;whiteSpace=wrap;rounded=0;" vertex="1" parent="WIyWlLk6GJQsqaUBKTNV-1">
          <mxGeometry x="723" y="210" width="60" height="30" as="geometry" />
        </mxCell>
        <mxCell id="685tumIucb2wH4SIrYt--88" value="&lt;b&gt;B1&lt;/b&gt;" style="text;html=1;strokeColor=none;fillColor=none;align=center;verticalAlign=middle;whiteSpace=wrap;rounded=0;" vertex="1" parent="WIyWlLk6GJQsqaUBKTNV-1">
          <mxGeometry x="846" y="170" width="60" height="30" as="geometry" />
        </mxCell>
        <mxCell id="685tumIucb2wH4SIrYt--89" value="&lt;b&gt;B2&lt;/b&gt;" style="text;html=1;strokeColor=none;fillColor=none;align=center;verticalAlign=middle;whiteSpace=wrap;rounded=0;" vertex="1" parent="WIyWlLk6GJQsqaUBKTNV-1">
          <mxGeometry x="901" y="210" width="60" height="30" as="geometry" />
        </mxCell>
        <mxCell id="685tumIucb2wH4SIrYt--95" value="示例接线图" style="text;strokeColor=none;fillColor=none;html=1;fontSize=24;fontStyle=1;verticalAlign=middle;align=center;" vertex="1" parent="WIyWlLk6GJQsqaUBKTNV-1">
          <mxGeometry x="804" y="130" width="100" height="40" as="geometry" />
        </mxCell>
      </root>
    </mxGraphModel>
  </diagram>
</mxfile>
